Coordinates
version=1
nRows=9
nColumns=63
inDegrees=yes

Units are S.I. units (second, meters, Newtons, ...)
If the header above contains a line with 'inDegrees', this indicates whether rotational values are in degrees (yes) or radians (no).

endheader
time	pelvis_tilt	pelvis_list	pelvis_rotation	pelvis_tx	pelvis_ty	pelvis_tz	hip_flexion_r	hip_adduction_r	hip_rotation_r	knee_angle_r	knee_angle_r_beta	ankle_angle_r	subtalar_angle_r	mtp_angle_r	hip_flexion_l	hip_adduction_l	hip_rotation_l	knee_angle_l	knee_angle_l_beta	ankle_angle_l	subtalar_angle_l	mtp_angle_l	L5_S1_Flex_Ext	L5_S1_Lat_Bending	L5_S1_axial_rotation	L4_L5_Flex_Ext	L4_L5_Lat_Bending	L4_L5_axial_rotation	L3_L4_Flex_Ext	L3_L4_Lat_Bending	L3_L4_axial_rotation	L2_L3_Flex_Ext	L2_L3_Lat_Bending	L2_L3_axial_rotation	L1_L2_Flex_Ext	L1_L2_Lat_Bending	L1_L2_axial_rotation	L1_T12_Flex_Ext	L1_T12_Lat_Bending	L1_T12_axial_rotation	Abs_r3	Abs_r2	Abs_r1	Abs_t1	Abs_t2	neck_flexion	neck_bending	neck_rotation	arm_flex_r	arm_add_r	arm_rot_r	elbow_flex_r	pro_sup_r	wrist_flex_r	wrist_dev_r	arm_flex_l	arm_add_l	arm_rot_l	elbow_flex_l	pro_sup_l	wrist_flex_l	wrist_dev_l
      1.67796610	     -2.80773988	     -0.94165047	     83.52994183	      0.20732589	      0.81343467	      0.63725521	      1.02728644	     -5.30445574	     -6.20820586	     13.48484190	      0.23535489	     19.96127323	     14.83963496	      0.00000000	     -0.28795489	      2.90210087	     -7.50199492	      8.35706334	      0.14585827	     15.74568366	     -1.27069529	      0.00000000	      0.15955142	     -0.74689794	     -1.38710221	      0.29630294	     -0.99337426	     -1.47379610	      0.26212702	     -1.81600766	     -1.47379610	      0.18235132	     -1.81600766	     -1.21371444	      0.14815945	     -1.52307429	     -1.12702055	      0.09116768	     -1.15694491	     -1.04032666	      1.13965982	     -8.44905892	     -7.71464637	      0.00000000	      0.00000000	     27.15944760	     -0.17476481	    -19.70687068	     10.41720409	     -9.11821896	     76.26995104	     22.78807322	     55.39527671	     -5.95052896	      2.30657492	      0.61492363	    -18.48293418	     40.18148384	     29.34724312	     67.48005944	     -4.88777291	     -3.53669120
      1.69491525	     -2.60319303	     -0.47610135	     83.50086947	      0.20696638	      0.81345734	      0.63832284	      0.72674725	     -5.19720194	     -6.34978793	     13.79574750	      0.24078122	     20.14658955	     14.87631412	      0.00000000	     -0.74867523	      2.78186663	     -7.43744893	      8.24822842	      0.14395874	     16.33303496	     -1.11571935	      0.00000000	      0.10362848	     -0.74348760	     -1.39101261	      0.19244845	     -0.98883850	     -1.47795089	      0.17025123	     -1.80771574	     -1.47795089	      0.11843699	     -1.80771574	     -1.21713603	      0.09622941	     -1.51611990	     -1.13019774	      0.05921331	     -1.15166228	     -1.04325945	      0.74020788	     -8.41048037	     -7.73639481	      0.00000000	      0.00000000	     26.42317401	     -0.19501220	    -19.42514505	     10.67181898	     -9.13950870	     76.41214088	     22.88542652	     55.28948102	     -5.77717023	      2.59028273	      0.80188408	    -18.43102298	     40.07621836	     29.16780350	     67.42580354	     -4.75644088	     -3.59965782
      1.71186441	     -2.37460363	      0.03277007	     83.49871909	      0.20662853	      0.81361863	      0.63916298	      0.37114731	     -5.06904052	     -6.41352826	     14.08364719	      0.24580601	     20.45857694	     14.90104926	      0.00000000	     -1.24496820	      2.62604611	     -7.35038865	      8.17899202	      0.14275034	     16.92331968	     -0.96178211	      0.00000000	      0.04908637	     -0.73974244	     -1.37259133	      0.09115830	     -0.98385744	     -1.45837829	      0.08064400	     -1.79860976	     -1.45837829	      0.05610081	     -1.79860976	     -1.20101741	      0.04558160	     -1.50848278	     -1.11523046	      0.02804795	     -1.14586104	     -1.02944350	      0.35061903	     -8.36811441	     -7.63394120	      0.00000000	      0.00000000	     25.44502716	     -0.26690564	    -19.21581816	     10.84731336	     -9.18895731	     76.63048932	     22.95912645	     55.16773687	     -5.56810659	      2.87048523	      1.07412060	    -18.37625280	     40.07014417	     28.93489054	     67.39836259	     -4.54143268	     -3.55306749
      1.72881356	     -2.08523380	      0.60049960	     83.31245887	      0.20652089	      0.81403480	      0.64001554	     -0.12201479	     -4.86988902	     -6.36210206	     14.12933636	      0.24660344	     20.62385224	     15.06102170	      0.00000000	     -1.88435808	      2.40571822	     -7.73597448	      7.98545620	      0.13937250	     17.40055602	     -0.39692894	      0.00000000	     -0.01034573	     -0.72842694	     -1.31174068	     -0.01921306	     -0.96880783	     -1.39372447	     -0.01699700	     -1.77109726	     -1.39372447	     -0.01182414	     -1.77109726	     -1.14777309	     -0.00960705	     -1.48540821	     -1.06578930	     -0.00591155	     -1.12833333	     -0.98380551	     -0.07389853	     -8.24011121	     -7.29550812	      0.00000000	      0.00000000	     24.20218654	     -0.68060481	    -19.31635657	     11.24229290	     -9.31875353	     77.80035664	     22.97557052	     54.19280450	     -4.78924803	      3.29774699	      1.63620782	    -18.31914920	     40.54632634	     28.36034582	     67.33201612	     -3.56805085	     -3.34831625
      1.74576271	     -2.00869627	      0.99358701	     83.26535714	      0.20635432	      0.81422698	      0.64048809	     -0.38000212	     -4.86762431	     -6.34933864	     14.35140494	      0.25047927	     20.82251762	     15.02453627	      0.00000000	     -2.19044769	      2.36879149	     -7.61958198	      8.09816722	      0.14133968	     17.94179864	     -0.37293753	      0.00000000	     -0.02280135	     -0.74675727	     -1.28307041	     -0.04234438	     -0.99318717	     -1.36326231	     -0.03746033	     -1.81566562	     -1.36326231	     -0.02605966	     -1.81566562	     -1.12268661	     -0.02117333	     -1.52278742	     -1.04249471	     -0.01302869	     -1.15672701	     -0.96230281	     -0.16286774	     -8.44746757	     -7.13605272	      0.00000000	      0.00000000	     22.80113546	     -0.43649243	    -19.49213810	     11.20162698	     -9.31642196	     77.96526675	     23.01774492	     54.05187087	     -4.69932364	      3.18545775	      1.81306127	    -18.42450412	     40.54515858	     28.27688242	     67.33050150	     -3.60039437	     -3.29968060
      1.76271186	     -1.97321654	      1.40477119	     83.20099968	      0.20636625	      0.81459309	      0.64067165	     -0.74954657	     -4.89789822	     -6.31501711	     14.46003256	      0.25237518	     20.78080715	     15.02895636	      0.00000000	     -2.53159075	      2.36792064	     -7.63609977	      8.23217823	      0.14367861	     18.19817012	     -0.38938462	      0.00000000	     -0.01871531	     -0.77556300	     -1.25129910	     -0.03475620	     -1.03149879	     -1.32950530	     -0.03074738	     -1.88570389	     -1.32950530	     -0.02138973	     -1.88570389	     -1.09488672	     -0.01737904	     -1.58152808	     -1.01668052	     -0.01069393	     -1.20134709	     -0.93847433	     -0.13368159	     -8.77332380	     -6.95935022	      0.00000000	      0.00000000	     21.03225012	     -0.10844273	    -19.96177671	     11.10112038	     -9.29131255	     78.22481884	     23.06438954	     53.87367250	     -4.46008102	      3.01516534	      1.94446546	    -18.58935344	     40.62988503	     28.17153193	     67.39693495	     -3.63487638	     -3.19001085
      1.77966102	     -2.09509236	      1.77193512	     82.99160659	      0.20704091	      0.81516696	      0.64081894	     -1.17812990	     -5.04570302	     -6.10669744	     14.32445684	      0.25000894	     20.47320529	     15.00303854	      0.00000000	     -2.87297439	      2.44119782	     -8.67678375	      8.29407534	      0.14475892	     18.40997102	      0.86849637	      0.00000000	      0.01088331	     -0.83992140	     -1.21497661	      0.02021140	     -1.11709547	     -1.29091265	      0.01788019	     -2.04218490	     -1.29091265	      0.01243854	     -2.04218490	     -1.06310453	      0.01010624	     -1.71276773	     -0.98716849	      0.00621872	     -1.30103825	     -0.91123246	      0.07773841	     -9.50135890	     -6.75733541	      0.00000000	      0.00000000	     19.01746163	      0.03533201	    -21.57681971	     13.01142510	     -8.45834668	     92.59196453	     21.62309318	     38.33729977	     -4.00867399	     -0.70900689	      2.08689237	    -19.13887308	     41.68826304	     28.16994376	     66.61252222	     -4.00879387	     -3.21446881
      1.79661017	     -2.08377628	      2.10004576	     82.86920340	      0.20693338	      0.81538752	      0.64088093	     -1.52380361	     -5.12295390	     -6.13398936	     14.40272606	      0.25137499	     19.96548209	     15.04838307	      0.00000000	     -3.11376860	      2.46585103	     -8.74693189	      8.51872698	      0.14867983	     18.55592896	      0.76193319	      0.00000000	      0.03059530	     -0.87412876	     -1.20707665	      0.05681853	     -1.16259125	     -1.28251894	      0.05026502	     -2.12535667	     -1.28251894	      0.03496737	     -2.12535667	     -1.05619206	      0.02841080	     -1.78252337	     -0.98074977	      0.01748216	     -1.35402545	     -0.90530748	      0.21853918	     -9.88831937	     -6.71339818	      0.00000000	      0.00000000	     17.72072094	      0.65561404	    -21.96287038	     12.89684198	     -8.48252078	     92.64317255	     21.88186771	     38.34021973	     -3.88326651	     -0.87963233	      2.02253054	    -19.31314924	     41.58150437	     28.11669203	     66.61046573	     -4.11659242	     -3.24147597
      1.81355932	     -2.11866260	      2.36921501	     82.75972565	      0.20710028	      0.81557106	      0.64028332	     -1.98162573	     -5.21457625	     -6.15058069	     14.24097126	      0.24855184	     19.53114297	     15.16061305	      0.00000000	     -3.31068077	      2.50878021	     -8.89285181	      8.78979279	      0.15341082	     18.60791697	      0.68966136	      0.00000000	      0.07425124	     -0.92196619	     -1.18567491	      0.13789197	     -1.22621503	     -1.25977959	      0.12198735	     -2.24166859	     -1.25977959	      0.08486174	     -2.24166859	     -1.03746554	      0.06894970	     -1.88007345	     -0.96336086	      0.04242716	     -1.42812562	     -0.88925618	      0.53036915	    -10.42946590	     -6.59436813	      0.00000000	      0.00000000	     16.34462687	      1.25265453	    -22.68901274	     12.59324830	     -8.40367619	     92.77798136	     22.06076402	     38.30632751	     -3.79270522	     -1.17646209	      1.76827153	    -19.53502227	     41.49243486	     28.07575758	     66.64826178	     -4.31258699	     -3.24245529
